<svg width="540" height="540" viewBox="0 0 540 540" fill="none" xmlns="http://www.w3.org/2000/svg">
<path fill-rule="evenodd" clip-rule="evenodd" d="M540 270C540 419.117 419.117 540 270 540C120.883 540 0 419.117 0 270C0 120.883 120.883 0 270 0C419.117 0 540 120.883 540 270ZM270 520C408.071 520 520 408.071 520 270C520 131.929 408.071 20 270 20C131.929 20 20 131.929 20 270C20 408.071 131.929 520 270 520Z" fill="black"/>
<path d="M118.476 272.466V185.193H136.928V221.202H174.385V185.193H192.794V272.466H174.385V236.415H136.928V272.466H118.476Z" fill="black"/>
<path d="M213.45 272.466H193.677L223.805 185.193H247.584L277.669 272.466H257.896L236.035 205.136H235.353L213.45 272.466ZM212.214 238.162H258.919V252.565H212.214V238.162Z" fill="black"/>
<path d="M351.474 215.747H332.81C332.469 213.332 331.773 211.188 330.722 209.312C329.67 207.409 328.321 205.79 326.673 204.455C325.025 203.119 323.122 202.097 320.963 201.386C318.832 200.676 316.517 200.321 314.017 200.321C309.5 200.321 305.565 201.443 302.213 203.688C298.861 205.903 296.261 209.142 294.415 213.403C292.568 217.636 291.645 222.778 291.645 228.83C291.645 235.051 292.568 240.278 294.415 244.511C296.29 248.744 298.903 251.94 302.256 254.099C305.608 256.259 309.486 257.338 313.889 257.338C316.361 257.338 318.648 257.011 320.75 256.358C322.881 255.705 324.77 254.753 326.418 253.503C328.065 252.224 329.429 250.676 330.508 248.858C331.616 247.04 332.383 244.966 332.81 242.636L351.474 242.722C350.991 246.727 349.784 250.591 347.852 254.312C345.949 258.006 343.378 261.315 340.139 264.241C336.929 267.139 333.094 269.44 328.633 271.145C324.202 272.821 319.187 273.659 313.591 273.659C305.807 273.659 298.847 271.898 292.71 268.375C286.602 264.852 281.773 259.753 278.221 253.077C274.699 246.401 272.937 238.318 272.937 228.83C272.937 219.312 274.727 211.216 278.307 204.54C281.886 197.864 286.744 192.778 292.881 189.284C299.017 185.761 305.92 184 313.591 184C318.648 184 323.335 184.71 327.653 186.131C332 187.551 335.849 189.625 339.202 192.352C342.554 195.051 345.281 198.361 347.383 202.281C349.514 206.202 350.878 210.69 351.474 215.747Z" fill="black"/>
<path d="M355.106 272.466V185.193H373.558V223.673H374.708L406.114 185.193H428.231L395.845 224.27L428.614 272.466H406.541L382.634 236.585L373.558 247.665V272.466H355.106Z" fill="black"/>
<path d="M71.58 355.466L54 294.026H68.19L78.36 336.716H78.87L90.09 294.026H102.24L113.43 336.806H113.97L124.14 294.026H138.33L120.75 355.466H108.09L96.39 315.296H95.91L84.24 355.466H71.58Z" fill="black"/>
<path d="M151.514 294.026V355.466H138.524V294.026H151.514Z" fill="black"/>
<path d="M153.103 304.736V294.026H203.563V304.736H184.753V355.466H171.913V304.736H153.103Z" fill="black"/>
<path d="M205.115 355.466V294.026H218.105V319.376H244.475V294.026H257.435V355.466H244.475V330.086H218.105V355.466H205.115Z" fill="black"/>
<path d="M299.965 294.026V355.466H286.975V294.026H299.965Z" fill="black"/>
<path d="M355.284 294.026V355.466H344.064L317.334 316.796H316.884V355.466H303.894V294.026H315.294L341.814 332.666H342.354V294.026H355.284Z" fill="black"/>
<path d="M381.038 355.466H359.258V294.026H381.218C387.398 294.026 392.718 295.256 397.178 297.716C401.638 300.156 405.068 303.666 407.468 308.246C409.888 312.826 411.098 318.306 411.098 324.686C411.098 331.086 409.888 336.586 407.468 341.186C405.068 345.786 401.618 349.316 397.118 351.776C392.638 354.236 387.278 355.466 381.038 355.466ZM372.248 344.336H380.498C384.338 344.336 387.568 343.656 390.188 342.296C392.828 340.916 394.808 338.786 396.128 335.906C397.468 333.006 398.138 329.266 398.138 324.686C398.138 320.146 397.468 316.436 396.128 313.556C394.808 310.676 392.838 308.556 390.218 307.196C387.598 305.836 384.368 305.156 380.528 305.156H372.248V344.336Z" fill="black"/>
<path d="M426.952 294.026V355.466H413.962V294.026H426.952Z" fill="black"/>
<path d="M441.471 355.466H427.551L448.761 294.026H465.501L486.681 355.466H472.761L457.371 308.066H456.891L441.471 355.466ZM440.601 331.316H473.481V341.456H440.601V331.316Z" fill="black"/>
</svg>
